<svg id="レイヤー_1" data-name="レイヤー 1" xmlns="http://www.w3.org/2000/svg" viewBox="0 0 474.96 72.29"><defs><style>.cls-1{fill:#231815;}.cls-2{fill:#00a0e9;}</style></defs><g id="文字右"><path class="cls-1" d="M99.24,502.22H77.81v11.44H97.34v15.08H77.81v26.88H60V487.15H99.24Z" transform="translate(-60.01 -485.24)"/><path class="cls-1" d="M160,543.72H134.57l-4.08,11.9h-19l26.06-68.47H157l26.07,68.47h-19Zm-4.72-13.53-8-22.79-8,22.79Z" transform="translate(-60.01 -485.24)"/><path class="cls-2" d="M197.15,555.62l24.93-68.47h17.79L215,555.62Z" transform="translate(-60.01 -485.24)"/><path class="cls-1" d="M304.85,510q-6.18-7.53-15.26-7.54a18.65,18.65,0,0,0-7.4,1.46,18,18,0,0,0-5.86,3.95,18.25,18.25,0,0,0-3.86,6,19.47,19.47,0,0,0-1.4,7.44,19.73,19.73,0,0,0,1.4,7.54,18.18,18.18,0,0,0,17,11.44q8.53,0,15.35-7.26v21.07l-1.82.63a52.76,52.76,0,0,1-7.63,2.14,37.27,37.27,0,0,1-7,.68,35.77,35.77,0,0,1-25-10.22,37.33,37.33,0,0,1-7.94-11.53,37,37,0,0,1,0-29.06,35.65,35.65,0,0,1,19.39-18.8,35.75,35.75,0,0,1,13.71-2.68,37.85,37.85,0,0,1,8,.86,49.49,49.49,0,0,1,8.31,2.68Z" transform="translate(-60.01 -485.24)"/><path class="cls-1" d="M321.2,521.38A35.26,35.26,0,0,1,343.76,488a43.53,43.53,0,0,1,30.56,0,36.17,36.17,0,0,1,12,7.67,35.17,35.17,0,0,1,7.85,11.49,37.24,37.24,0,0,1,0,28.43,35,35,0,0,1-7.85,11.48,36.19,36.19,0,0,1-12,7.68,43.53,43.53,0,0,1-30.56,0,35.75,35.75,0,0,1-11.94-7.68A35.37,35.37,0,0,1,324,535.6,35.73,35.73,0,0,1,321.2,521.38Zm18.61,0a18.23,18.23,0,0,0,1.55,7.54,19.08,19.08,0,0,0,4.17,6,18.72,18.72,0,0,0,6.13,4,20.15,20.15,0,0,0,14.81,0,19.11,19.11,0,0,0,6.17-4,18.61,18.61,0,0,0,4.23-6,19.2,19.2,0,0,0,0-15.07,18.76,18.76,0,0,0-4.23-6,20,20,0,0,0-21-4,18.79,18.79,0,0,0-10.3,10A18.21,18.21,0,0,0,339.81,521.38Z" transform="translate(-60.01 -485.24)"/><path class="cls-1" d="M416.46,487.15H442.8A31.17,31.17,0,0,1,455.92,490a36,36,0,0,1,10.72,7.49,35,35,0,0,1,7.22,10.9,33.61,33.61,0,0,1,0,26,34.7,34.7,0,0,1-7.17,10.95A35.4,35.4,0,0,1,456,552.81a31.38,31.38,0,0,1-13.21,2.81H416.46Zm17.8,53.4h4.09a22.08,22.08,0,0,0,8.26-1.46,17.79,17.79,0,0,0,6.13-4,17.14,17.14,0,0,0,3.82-6,21.8,21.8,0,0,0,1.31-7.68,21,21,0,0,0-1.36-7.62,17.12,17.12,0,0,0-10-10.09,22,22,0,0,0-8.17-1.45h-4.09Z" transform="translate(-60.01 -485.24)"/><path class="cls-1" d="M535,502.22H513.81v11.44h20v15.08h-20v11.81H535v15.07H496V487.15h39Z" transform="translate(-60.01 -485.24)"/></g></svg>